<svg width="75" height="75" viewBox="0 0 75 75" fill="none" xmlns="http://www.w3.org/2000/svg">
<path d="M13.5645 3.07617C8.87695 3.07617 4.18359 6.5918 4.18359 13.623L13.5645 32.373L22.9395 13.623C22.9395 6.5918 18.252 3.07617 13.5645 3.07617ZM54.917 8.78906C53.9062 8.83154 52.9248 9.02344 52.1045 9.19922L52.6611 11.7773C53.4814 11.5942 54.3311 11.4785 55.0488 11.4258L54.917 8.78906ZM13.5645 8.93555C16.1572 8.93555 18.252 11.0347 18.252 13.623C18.252 16.2158 16.1572 18.3105 13.5645 18.3105C10.9761 18.3105 8.87695 16.2158 8.87695 13.623C8.87695 11.0347 10.9761 8.93555 13.5645 8.93555ZM57.832 8.96484L57.3926 11.5576C58.1104 11.7085 58.8281 11.8975 59.458 12.2754L60.7324 9.96094C59.8389 9.48486 58.8428 9.05713 57.832 8.96484ZM49.4092 9.94629C48.5156 10.2949 47.6221 10.6069 46.8604 10.9131L47.9004 13.3301C48.7061 12.9873 49.5557 12.6885 50.2734 12.4365L49.4092 9.94629ZM63.1348 11.9092L61.1279 13.623C61.6553 14.2266 62.0654 14.9707 62.3877 15.5713L64.7461 14.3848C64.248 13.4253 63.8086 12.6987 63.1348 11.9092ZM44.4141 12.041C43.5205 12.4966 42.7881 12.9023 41.9971 13.3008L43.2861 15.6152C44.0479 15.1758 44.8828 14.751 45.5566 14.4141L44.4141 12.041ZM39.6826 14.6631C38.9062 15.1172 38.1445 15.5713 37.3975 16.0693L38.833 18.2666C39.5508 17.7979 40.2979 17.3584 41.0303 16.9189L39.6826 14.6631ZM65.6543 17.2852C64.79 17.4316 63.9111 17.5342 63.0469 17.6367C63.1055 18.3691 63.0615 19.1602 62.915 19.7754L65.4785 20.376C65.625 19.3213 65.7568 18.2373 65.6543 17.2852ZM35.1709 17.5342C34.4385 18.0322 33.7207 18.5449 32.9883 19.043L34.5117 21.1963C35.2148 20.6836 35.9326 20.2002 36.6504 19.7021L35.1709 17.5342ZM30.835 20.625C30.1025 21.1523 29.3408 21.7383 28.7109 22.2217L30.3076 24.3164C31.1133 23.7305 31.6699 23.291 32.4023 22.749L30.835 20.625ZM62.0361 21.7969C61.5967 22.4707 61.084 23.1445 60.5713 23.6572L62.4902 25.4883C63.1201 24.7412 63.7939 23.9795 64.2627 23.2178L62.0361 21.7969ZM26.6162 23.8623C25.8984 24.4189 25.1807 24.9902 24.5508 25.5176L26.2207 27.5537C26.9092 26.9824 27.6123 26.3965 28.2568 25.9277L26.6162 23.8623ZM58.7549 25.3418C58.0811 25.8838 57.3779 26.4111 56.7334 26.8506L58.2422 29.0186C59.0186 28.4912 59.7803 27.9199 60.4395 27.3926L58.7549 25.3418ZM22.5146 27.2314C21.8262 27.7881 21.167 28.374 20.4932 28.9453L22.207 30.9521C22.8662 30.3809 23.5254 29.8096 24.1992 29.2529L22.5146 27.2314ZM54.5801 28.2568C53.833 28.6963 53.0566 29.1504 52.3535 29.5312L53.6133 31.8604C54.4043 31.377 55.2979 30.9521 55.957 30.5127L54.5801 28.2568ZM18.4863 30.6885C17.8271 31.2744 17.1826 31.8604 16.5234 32.4609L18.2959 34.4238C18.9404 33.8379 19.5996 33.252 20.2441 32.666L18.4863 30.6885ZM50.0537 30.7471C49.2773 31.1279 48.501 31.5234 47.7246 31.9043L48.8525 34.2773C49.7607 33.8379 50.4346 33.4717 51.2549 33.0908L50.0537 30.7471ZM45.3662 33.0029C44.5606 33.3691 43.7842 33.7207 42.9639 34.0576L44.0332 36.4746C44.8389 36.123 45.6445 35.7568 46.4502 35.3906L45.3662 33.0029ZM14.5898 34.2773C13.8428 34.9365 13.3228 35.4492 12.6416 36.1084L14.502 38.0127C15.1904 37.3535 15.7471 36.7822 16.3916 36.2256L14.5898 34.2773ZM40.5615 35.127C39.7559 35.4639 38.9502 35.8154 38.1445 36.1523L39.1699 38.5986C39.9902 38.2617 40.7959 37.9102 41.6016 37.5586L40.5615 35.127ZM35.7129 37.1777C34.9072 37.5293 34.1016 37.8809 33.2812 38.2031L34.3066 40.6494C35.1123 40.3125 35.9326 39.9609 36.7383 39.624L35.7129 37.1777ZM62.7832 38.2324C58.0957 38.2324 53.4082 41.748 53.4082 48.7793L62.7832 67.5293L72.1582 48.7793C72.1582 41.748 67.4707 38.2324 62.7832 38.2324ZM30.8496 39.2285C30.0147 39.6094 29.1357 39.9609 28.418 40.2686L29.458 42.7002C30.3223 42.334 31.1426 41.9824 31.875 41.6602L30.8496 39.2285ZM25.9863 41.3086C25.1953 41.6748 24.2725 42.085 23.5693 42.4072L24.6533 44.8096C25.5176 44.4287 26.2793 44.0479 27.041 43.7256L25.9863 41.3086ZM21.1523 43.5059C20.332 43.9014 19.4824 44.3115 18.75 44.6777L19.9365 47.0361C20.7275 46.626 21.5479 46.2451 22.2656 45.8936L21.1523 43.5059ZM62.7832 44.0918C65.376 44.0918 67.4707 46.1865 67.4707 48.7793C67.4707 51.3721 65.376 53.4668 62.7832 53.4668C60.1904 53.4668 58.0957 51.3721 58.0957 48.7793C58.0957 46.1865 60.1904 44.0918 62.7832 44.0918ZM16.377 45.8936C15.6006 46.3184 14.8242 46.7578 14.0332 47.2119L15.3516 49.4971C16.0986 49.0576 16.8604 48.6475 17.6221 48.2373L16.377 45.8936ZM11.7334 48.6328C10.9116 49.1016 10.1177 49.7314 9.43359 50.1855L11.0303 52.2949C11.7583 51.7676 12.542 51.2256 13.1689 50.8447L11.7334 48.6328ZM7.35352 51.9434C6.65039 52.5879 5.95752 53.335 5.41992 53.9648L7.42676 55.6787C7.99072 54.9902 8.48145 54.4775 9.14062 53.8916L7.35352 51.9434ZM39.2578 52.1338L39.4922 54.7559C40.2539 54.624 41.0156 54.7119 41.7773 54.8291L42.2314 52.2363C41.2646 52.0898 40.2393 51.9873 39.2578 52.1338ZM33.8086 53.5986L34.8047 56.0449C35.5664 55.708 36.3574 55.4443 37.1631 55.1953C36.8848 54.3604 36.6797 53.5107 36.46 52.6611C35.5371 52.9248 34.6143 53.2764 33.8086 53.5986ZM45.1611 53.4668L43.667 55.6348C44.2822 56.0889 44.8828 56.5723 45.3662 57.1729L47.3584 55.4443C46.6113 54.6826 46.04 53.9648 45.1611 53.4668ZM31.3184 54.7852C30.5127 55.1953 29.7363 55.6641 28.96 56.1182L30.293 58.3887C31.0547 57.9785 31.8018 57.4951 32.5488 57.0996L31.3184 54.7852ZM3.81006 56.3965C3.36768 57.3486 3.00879 58.374 2.8418 59.2822L5.43457 59.7363C5.59277 58.9014 5.81982 58.3008 6.15234 57.583C5.34814 57.2314 4.58057 56.8066 3.81006 56.3965ZM26.6748 57.5391C25.9277 58.0225 25.1953 58.5059 24.4629 59.0039L25.9277 61.2012C26.6602 60.7178 27.3779 60.2197 28.1104 59.7363L26.6748 57.5391ZM49.043 57.7148L46.8311 59.1504C47.2998 59.8535 47.7539 60.5859 48.1787 61.333L50.4639 60.0146C49.9512 59.1943 49.585 58.4619 49.043 57.7148ZM22.2803 60.498C21.5479 60.9814 20.8154 61.4502 20.0977 61.9629L21.5625 64.1602C22.2656 63.6475 23.0127 63.1641 23.7598 62.666L22.2803 60.498ZM5.46387 61.8896C4.61572 62.0654 3.76025 62.2119 2.90771 62.373C3.06152 63.3984 3.47314 64.3945 3.84521 65.1855L6.22559 64.043C5.90771 63.3105 5.60596 62.5488 5.46387 61.8896ZM51.7676 62.2998L49.4824 63.6182C49.9365 64.4092 50.4639 65.2588 50.8887 65.9326L53.1006 64.5117C52.6025 63.7354 52.1777 63.0029 51.7676 62.2998ZM17.9297 63.3984C17.1973 63.8525 16.4795 64.292 15.7178 64.7168L17.0215 67.0166C17.7979 66.5625 18.5742 66.1084 19.3213 65.625L17.9297 63.3984ZM7.48535 65.7861L5.68359 67.7197C6.49805 68.4961 7.50293 69.0088 8.59863 69.2432L9.18457 66.6797C8.53418 66.5479 7.92627 66.2256 7.48535 65.7861ZM13.4912 65.8301C12.7573 66.167 11.9956 66.4307 11.2061 66.5918L11.8066 69.1699C12.7471 68.9795 13.6318 68.6279 14.5166 68.2617L13.4912 65.8301ZM54.5508 66.5332L52.5146 68.1885C53.1445 68.9648 53.9209 69.7119 54.5947 70.2393L56.2207 68.1592C55.5762 67.6611 55.0195 67.0605 54.5508 66.5332ZM58.0811 69.0967L57.4219 71.6602C58.5791 71.8945 59.4434 71.9678 60.5273 71.8506L60.2051 69.2285C59.4873 69.3457 58.7842 69.2725 58.0811 69.0967Z" fill="black"/>
</svg>
