<svg width="128" height="128" viewBox="0 0 128 128" fill="none" xmlns="http://www.w3.org/2000/svg">
<path d="M80 120H68C65.8789 119.998 63.8453 119.154 62.3455 117.655C60.8457 116.155 60.0021 114.121 60 112V92H68V112H80V92H88V76C87.9989 74.9395 87.5772 73.9227 86.8273 73.1728C86.0773 72.4228 85.0605 72.0011 84 72H49.12L41.12 48H16C14.9395 48.0011 13.9227 48.4228 13.1727 49.1727C12.4228 49.9227 12.0011 50.9395 12 52V76H20V112H36V84H44V112C43.9979 114.121 43.1543 116.155 41.6545 117.655C40.1547 119.154 38.1211 119.998 36 120H20C17.8789 119.998 15.8453 119.154 14.3455 117.655C12.8457 116.155 12.0021 114.121 12 112V84C9.87892 83.9979 7.84532 83.1544 6.34548 81.6545C4.84565 80.1547 4.00212 78.1211 4 76V52C4.00318 48.8184 5.26848 45.768 7.51823 43.5182C9.76798 41.2685 12.8184 40.0032 16 40H41.12C42.7988 39.999 44.4354 40.5266 45.7974 41.5081C47.1594 42.4896 48.1778 43.8751 48.708 45.468L54.88 64H84C87.1816 64.0032 90.232 65.2685 92.4818 67.5182C94.7315 69.768 95.9968 72.8184 96 76V92C95.9979 94.1211 95.1544 96.1547 93.6545 97.6545C92.1547 99.1544 90.1211 99.9979 88 100V112C87.9979 114.121 87.1544 116.155 85.6545 117.655C84.1547 119.154 82.1211 119.998 80 120ZM112 120H104V76H116V52C115.999 50.9395 115.577 49.9227 114.827 49.1727C114.077 48.4228 113.061 48.0011 112 48H96V40H112C115.182 40.0032 118.232 41.2685 120.482 43.5182C122.732 45.768 123.997 48.8184 124 52V76C123.998 78.1211 123.154 80.1547 121.655 81.6545C120.155 83.1544 118.121 83.9979 116 84H112V120ZM28 36C24.8355 36 21.7421 35.0616 19.1109 33.3035C16.4797 31.5454 14.4289 29.0466 13.2179 26.1229C12.0069 23.1993 11.6901 19.9823 12.3074 16.8786C12.9248 13.7749 14.4487 10.9239 16.6863 8.6863C18.9239 6.44866 21.7749 4.92481 24.8786 4.30744C27.9823 3.69008 31.1993 4.00693 34.1229 5.21793C37.0466 6.42894 39.5454 8.4797 41.3035 11.1109C43.0616 13.7421 44 16.8355 44 20C43.9947 24.2418 42.3073 28.3084 39.3079 31.3079C36.3084 34.3073 32.2418 35.9947 28 36ZM28 12C26.4177 12 24.871 12.4692 23.5554 13.3483C22.2398 14.2273 21.2145 15.4767 20.609 16.9385C20.0035 18.4003 19.845 20.0089 20.1537 21.5607C20.4624 23.1126 21.2243 24.538 22.3431 25.6569C23.462 26.7757 24.8874 27.5376 26.4393 27.8463C27.9911 28.155 29.5997 27.9965 31.0615 27.391C32.5233 26.7855 33.7727 25.7602 34.6518 24.4446C35.5308 23.129 36 21.5823 36 20C35.9979 17.8789 35.1543 15.8453 33.6545 14.3455C32.1547 12.8457 30.1211 12.0021 28 12ZM100 36C96.8355 36 93.7421 35.0616 91.1109 33.3035C88.4797 31.5454 86.4289 29.0466 85.2179 26.1229C84.0069 23.1993 83.6901 19.9823 84.3074 16.8786C84.9248 13.7749 86.4487 10.9239 88.6863 8.6863C90.9239 6.44866 93.7749 4.92481 96.8786 4.30744C99.9823 3.69008 103.199 4.00693 106.123 5.21793C109.047 6.42894 111.545 8.4797 113.304 11.1109C115.062 13.7421 116 16.8355 116 20C115.995 24.2418 114.307 28.3084 111.308 31.3079C108.308 34.3073 104.242 35.9947 100 36ZM100 12C98.4177 12 96.871 12.4692 95.5554 13.3483C94.2398 14.2273 93.2145 15.4767 92.609 16.9385C92.0035 18.4003 91.845 20.0089 92.1537 21.5607C92.4624 23.1126 93.2243 24.538 94.3431 25.6569C95.462 26.7757 96.8874 27.5376 98.4393 27.8463C99.9911 28.155 101.6 27.9965 103.061 27.391C104.523 26.7855 105.773 25.7602 106.652 24.4446C107.531 23.129 108 21.5823 108 20C107.998 17.8789 107.154 15.8453 105.655 14.3455C104.155 12.8457 102.121 12.0021 100 12Z" fill="black"/>
<path d="M74 60C71.2311 60 68.5243 59.1789 66.222 57.6406C63.9197 56.1022 62.1253 53.9157 61.0657 51.3576C60.0061 48.7994 59.7288 45.9845 60.269 43.2687C60.8092 40.553 62.1426 38.0584 64.1005 36.1005C66.0584 34.1426 68.553 32.8092 71.2687 32.269C73.9845 31.7288 76.7994 32.0061 79.3576 33.0657C81.9157 34.1253 84.1022 35.9197 85.6406 38.222C87.1789 40.5243 88 43.2311 88 46C87.9958 49.7117 86.5194 53.2702 83.8948 55.8948C81.2702 58.5194 77.7117 59.9958 74 60ZM74 40C72.8133 40 71.6533 40.3519 70.6666 41.0112C69.6799 41.6705 68.9109 42.6076 68.4567 43.7039C68.0026 44.8003 67.8838 46.0067 68.1153 47.1706C68.3468 48.3344 68.9183 49.4035 69.7574 50.2426C70.5965 51.0818 71.6656 51.6532 72.8295 51.8847C73.9934 52.1162 75.1997 51.9974 76.2961 51.5433C77.3925 51.0892 78.3295 50.3201 78.9888 49.3334C79.6481 48.3467 80 47.1867 80 46C79.9979 44.4094 79.3651 42.8845 78.2403 41.7597C77.1156 40.6349 75.5907 40.0021 74 40Z" fill="black"/>
</svg>
