<svg width="711" height="290" viewBox="0 0 711 290" fill="none" xmlns="http://www.w3.org/2000/svg">
<path d="M28.3585 62.75V17.95H47.6865C52.6785 17.95 56.5398 18.9527 59.2705 20.958C62.0438 22.9633 63.4305 25.8007 63.4305 29.47C63.4305 31.902 62.8545 33.95 61.7025 35.614C60.5932 37.278 59.0572 38.5367 57.0945 39.39C55.1745 40.2433 53.0625 40.67 50.7585 40.67L51.8465 39.134C54.7052 39.134 57.1585 39.582 59.2065 40.478C61.2972 41.3313 62.9185 42.6327 64.0705 44.382C65.2225 46.0887 65.7985 48.222 65.7985 50.782C65.7985 54.5793 64.3905 57.5233 61.5745 59.614C58.8012 61.7047 54.5985 62.75 48.9665 62.75H28.3585ZM33.0945 58.846H48.9025C52.8278 58.846 55.8358 58.1847 57.9265 56.862C60.0172 55.4967 61.0625 53.342 61.0625 50.398C61.0625 47.4967 60.0172 45.3847 57.9265 44.062C55.8358 42.6967 52.8278 42.014 48.9025 42.014H32.5825V38.11H47.3665C50.9505 38.11 53.7238 37.4273 55.6865 36.062C57.6918 34.6967 58.6945 32.67 58.6945 29.982C58.6945 27.2513 57.6918 25.2247 55.6865 23.902C53.7238 22.5367 50.9505 21.854 47.3665 21.854H33.0945V58.846ZM89.9205 63.07C86.4218 63.07 83.3498 62.3447 80.7045 60.894C78.0592 59.4007 75.9898 57.374 74.4965 54.814C73.0032 52.2113 72.2565 49.246 72.2565 45.918C72.2565 42.59 72.9605 39.646 74.3685 37.086C75.8192 34.526 77.7818 32.5207 80.2565 31.07C82.7738 29.5767 85.5898 28.83 88.7045 28.83C91.8618 28.83 94.6565 29.5553 97.0885 31.006C99.5632 32.414 101.505 34.4193 102.913 37.022C104.321 39.582 105.025 42.5473 105.025 45.918C105.025 46.1313 105.003 46.366 104.961 46.622C104.961 46.8353 104.961 47.07 104.961 47.326H75.7125V43.934H102.529L100.737 45.278C100.737 42.846 100.203 40.6913 99.1365 38.814C98.1125 36.894 96.7045 35.4007 94.9125 34.334C93.1205 33.2673 91.0512 32.734 88.7045 32.734C86.4005 32.734 84.3312 33.2673 82.4965 34.334C80.6618 35.4007 79.2325 36.894 78.2085 38.814C77.1845 40.734 76.6725 42.9313 76.6725 45.406V46.11C76.6725 48.67 77.2272 50.9313 78.3365 52.894C79.4885 54.814 81.0672 56.3287 83.0725 57.438C85.1205 58.5047 87.4458 59.038 90.0485 59.038C92.0965 59.038 93.9952 58.6753 95.7445 57.95C97.5365 57.2247 99.0725 56.1153 100.353 54.622L102.913 57.566C101.419 59.358 99.5418 60.7233 97.2805 61.662C95.0618 62.6007 92.6085 63.07 89.9205 63.07ZM136.208 37.982H159.888V42.014H136.208V37.982ZM136.72 58.654H163.664V62.75H131.984V17.95H162.704V22.046H136.72V58.654ZM215.82 28.83C218.551 28.83 220.919 29.3633 222.924 30.43C224.972 31.454 226.551 33.0327 227.66 35.166C228.812 37.2993 229.388 39.9873 229.388 43.23V62.75H224.844V43.678C224.844 40.1367 223.991 37.47 222.284 35.678C220.62 33.8433 218.252 32.926 215.18 32.926C212.876 32.926 210.871 33.4167 209.164 34.398C207.5 35.3367 206.199 36.7233 205.26 38.558C204.364 40.35 203.916 42.526 203.916 45.086V62.75H199.372V43.678C199.372 40.1367 198.519 37.47 196.812 35.678C195.105 33.8433 192.716 32.926 189.644 32.926C187.383 32.926 185.399 33.4167 183.692 34.398C181.985 35.3367 180.663 36.7233 179.724 38.558C178.828 40.35 178.38 42.526 178.38 45.086V62.75H173.836V29.15H178.188V38.238L177.484 36.638C178.508 34.206 180.151 32.3073 182.412 30.942C184.716 29.534 187.425 28.83 190.54 28.83C193.825 28.83 196.62 29.662 198.924 31.326C201.228 32.9473 202.721 35.4007 203.404 38.686L201.612 37.982C202.593 35.2513 204.321 33.054 206.796 31.39C209.313 29.6833 212.321 28.83 215.82 28.83ZM255.983 63.07C252.484 63.07 249.412 62.3447 246.767 60.894C244.122 59.4007 242.052 57.374 240.559 54.814C239.066 52.2113 238.319 49.246 238.319 45.918C238.319 42.59 239.023 39.646 240.431 37.086C241.882 34.526 243.844 32.5207 246.319 31.07C248.836 29.5767 251.652 28.83 254.767 28.83C257.924 28.83 260.719 29.5553 263.151 31.006C265.626 32.414 267.567 34.4193 268.975 37.022C270.383 39.582 271.087 42.5473 271.087 45.918C271.087 46.1313 271.066 46.366 271.023 46.622C271.023 46.8353 271.023 47.07 271.023 47.326H241.775V43.934H268.591L266.799 45.278C266.799 42.846 266.266 40.6913 265.199 38.814C264.175 36.894 262.767 35.4007 260.975 34.334C259.183 33.2673 257.114 32.734 254.767 32.734C252.463 32.734 250.394 33.2673 248.559 34.334C246.724 35.4007 245.295 36.894 244.271 38.814C243.247 40.734 242.735 42.9313 242.735 45.406V46.11C242.735 48.67 243.29 50.9313 244.399 52.894C245.551 54.814 247.13 56.3287 249.135 57.438C251.183 58.5047 253.508 59.038 256.111 59.038C258.159 59.038 260.058 58.6753 261.807 57.95C263.599 57.2247 265.135 56.1153 266.415 54.622L268.975 57.566C267.482 59.358 265.604 60.7233 263.343 61.662C261.124 62.6007 258.671 63.07 255.983 63.07ZM280.336 62.75V29.15H284.688V38.302L284.24 36.702C285.179 34.142 286.757 32.2007 288.976 30.878C291.195 29.5127 293.947 28.83 297.232 28.83V33.246C297.061 33.246 296.891 33.246 296.72 33.246C296.549 33.2033 296.379 33.182 296.208 33.182C292.667 33.182 289.893 34.27 287.888 36.446C285.883 38.5793 284.88 41.63 284.88 45.598V62.75H280.336ZM319.547 75.486C316.475 75.486 313.531 75.038 310.715 74.142C307.899 73.246 305.616 71.966 303.867 70.302L306.171 66.846C307.75 68.254 309.691 69.3633 311.995 70.174C314.342 71.0273 316.816 71.454 319.419 71.454C323.686 71.454 326.822 70.4513 328.827 68.446C330.832 66.4833 331.835 63.4113 331.835 59.23V50.846L332.475 45.086L332.027 39.326V29.15H336.379V58.654C336.379 64.4567 334.95 68.702 332.091 71.39C329.275 74.1207 325.094 75.486 319.547 75.486ZM318.715 61.47C315.515 61.47 312.635 60.7873 310.075 59.422C307.515 58.014 305.488 56.0727 303.995 53.598C302.544 51.1233 301.819 48.286 301.819 45.086C301.819 41.886 302.544 39.07 303.995 36.638C305.488 34.1633 307.515 32.2433 310.075 30.878C312.635 29.5127 315.515 28.83 318.715 28.83C321.702 28.83 324.39 29.4487 326.779 30.686C329.168 31.9233 331.067 33.758 332.475 36.19C333.883 38.622 334.587 41.5873 334.587 45.086C334.587 48.5847 333.883 51.55 332.475 53.982C331.067 56.414 329.168 58.27 326.779 59.55C324.39 60.83 321.702 61.47 318.715 61.47ZM319.163 57.438C321.638 57.438 323.835 56.926 325.755 55.902C327.675 54.8353 329.19 53.3847 330.299 51.55C331.408 49.6727 331.963 47.518 331.963 45.086C331.963 42.654 331.408 40.5207 330.299 38.686C329.19 36.8513 327.675 35.422 325.755 34.398C323.835 33.3313 321.638 32.798 319.163 32.798C316.731 32.798 314.534 33.3313 312.571 34.398C310.651 35.422 309.136 36.8513 308.027 38.686C306.96 40.5207 306.427 42.654 306.427 45.086C306.427 47.518 306.96 49.6727 308.027 51.55C309.136 53.3847 310.651 54.8353 312.571 55.902C314.534 56.926 316.731 57.438 319.163 57.438ZM363.296 63.07C359.797 63.07 356.725 62.3447 354.08 60.894C351.434 59.4007 349.365 57.374 347.872 54.814C346.378 52.2113 345.632 49.246 345.632 45.918C345.632 42.59 346.336 39.646 347.744 37.086C349.194 34.526 351.157 32.5207 353.632 31.07C356.149 29.5767 358.965 28.83 362.08 28.83C365.237 28.83 368.032 29.5553 370.464 31.006C372.938 32.414 374.88 34.4193 376.288 37.022C377.696 39.582 378.4 42.5473 378.4 45.918C378.4 46.1313 378.378 46.366 378.336 46.622C378.336 46.8353 378.336 47.07 378.336 47.326H349.088V43.934H375.904L374.112 45.278C374.112 42.846 373.578 40.6913 372.512 38.814C371.488 36.894 370.08 35.4007 368.288 34.334C366.496 33.2673 364.426 32.734 362.08 32.734C359.776 32.734 357.706 33.2673 355.872 34.334C354.037 35.4007 352.608 36.894 351.584 38.814C350.56 40.734 350.048 42.9313 350.048 45.406V46.11C350.048 48.67 350.602 50.9313 351.712 52.894C352.864 54.814 354.442 56.3287 356.448 57.438C358.496 58.5047 360.821 59.038 363.424 59.038C365.472 59.038 367.37 58.6753 369.12 57.95C370.912 57.2247 372.448 56.1153 373.728 54.622L376.288 57.566C374.794 59.358 372.917 60.7233 370.656 61.662C368.437 62.6007 365.984 63.07 363.296 63.07ZM404.801 28.83C407.531 28.83 409.921 29.3633 411.969 30.43C414.059 31.454 415.681 33.0327 416.833 35.166C418.027 37.2993 418.625 39.9873 418.625 43.23V62.75H414.081V43.678C414.081 40.1367 413.185 37.47 411.393 35.678C409.643 33.8433 407.169 32.926 403.969 32.926C401.579 32.926 399.489 33.4167 397.697 34.398C395.947 35.3367 394.582 36.7233 393.601 38.558C392.662 40.35 392.193 42.526 392.193 45.086V62.75H387.649V29.15H392.001V38.366L391.297 36.638C392.363 34.206 394.07 32.3073 396.417 30.942C398.763 29.534 401.558 28.83 404.801 28.83ZM444.851 63.07C441.523 63.07 438.536 62.3447 435.891 60.894C433.288 59.4007 431.24 57.374 429.747 54.814C428.253 52.2113 427.507 49.246 427.507 45.918C427.507 42.5473 428.253 39.582 429.747 37.022C431.24 34.462 433.288 32.4567 435.891 31.006C438.536 29.5553 441.523 28.83 444.851 28.83C447.709 28.83 450.291 29.3847 452.595 30.494C454.899 31.6033 456.712 33.2673 458.035 35.486L454.643 37.79C453.491 36.0833 452.061 34.8247 450.355 34.014C448.648 33.2033 446.792 32.798 444.787 32.798C442.397 32.798 440.243 33.3527 438.323 34.462C436.403 35.5287 434.888 37.0433 433.779 39.006C432.669 40.9687 432.115 43.2727 432.115 45.918C432.115 48.5633 432.669 50.8673 433.779 52.83C434.888 54.7927 436.403 56.3287 438.323 57.438C440.243 58.5047 442.397 59.038 444.787 59.038C446.792 59.038 448.648 58.6327 450.355 57.822C452.061 57.0113 453.491 55.774 454.643 54.11L458.035 56.414C456.712 58.59 454.899 60.254 452.595 61.406C450.291 62.5153 447.709 63.07 444.851 63.07ZM466.717 75.486C465.138 75.486 463.624 75.23 462.173 74.718C460.765 74.206 459.549 73.438 458.525 72.414L460.637 69.022C461.49 69.8327 462.408 70.4513 463.389 70.878C464.413 71.3473 465.544 71.582 466.781 71.582C468.274 71.582 469.554 71.1553 470.621 70.302C471.73 69.4913 472.776 68.0407 473.757 65.95L475.933 61.022L476.445 60.318L490.269 29.15H494.749L477.917 66.782C476.978 68.958 475.933 70.686 474.781 71.966C473.672 73.246 472.456 74.142 471.133 74.654C469.81 75.2087 468.338 75.486 466.717 75.486ZM475.677 63.71L460.189 29.15H464.925L478.621 59.998L475.677 63.71ZM517.899 62.75V29.15H522.251V38.302L521.803 36.702C522.741 34.142 524.32 32.2007 526.539 30.878C528.757 29.5127 531.509 28.83 534.795 28.83V33.246C534.624 33.246 534.453 33.246 534.283 33.246C534.112 33.2033 533.941 33.182 533.771 33.182C530.229 33.182 527.456 34.27 525.451 36.446C523.445 38.5793 522.443 41.63 522.443 45.598V62.75H517.899ZM557.046 63.07C553.547 63.07 550.475 62.3447 547.83 60.894C545.184 59.4007 543.115 57.374 541.622 54.814C540.128 52.2113 539.382 49.246 539.382 45.918C539.382 42.59 540.086 39.646 541.494 37.086C542.944 34.526 544.907 32.5207 547.382 31.07C549.899 29.5767 552.715 28.83 555.83 28.83C558.987 28.83 561.782 29.5553 564.214 31.006C566.688 32.414 568.63 34.4193 570.038 37.022C571.446 39.582 572.15 42.5473 572.15 45.918C572.15 46.1313 572.128 46.366 572.086 46.622C572.086 46.8353 572.086 47.07 572.086 47.326H542.838V43.934H569.654L567.862 45.278C567.862 42.846 567.328 40.6913 566.262 38.814C565.238 36.894 563.83 35.4007 562.038 34.334C560.246 33.2673 558.176 32.734 555.83 32.734C553.526 32.734 551.456 33.2673 549.622 34.334C547.787 35.4007 546.358 36.894 545.334 38.814C544.31 40.734 543.798 42.9313 543.798 45.406V46.11C543.798 48.67 544.352 50.9313 545.462 52.894C546.614 54.814 548.192 56.3287 550.198 57.438C552.246 58.5047 554.571 59.038 557.174 59.038C559.222 59.038 561.12 58.6753 562.87 57.95C564.662 57.2247 566.198 56.1153 567.478 54.622L570.038 57.566C568.544 59.358 566.667 60.7233 564.406 61.662C562.187 62.6007 559.734 63.07 557.046 63.07ZM601.517 62.75V55.326L601.325 54.11V41.694C601.325 38.8353 600.514 36.638 598.893 35.102C597.314 33.566 594.946 32.798 591.789 32.798C589.613 32.798 587.544 33.1607 585.581 33.886C583.618 34.6113 581.954 35.5713 580.589 36.766L578.541 33.374C580.248 31.9233 582.296 30.814 584.685 30.046C587.074 29.2353 589.592 28.83 592.237 28.83C596.589 28.83 599.938 29.918 602.285 32.094C604.674 34.2273 605.869 37.4913 605.869 41.886V62.75H601.517ZM589.933 63.07C587.416 63.07 585.218 62.6647 583.341 61.854C581.506 61.0007 580.098 59.8487 579.117 58.398C578.136 56.9047 577.645 55.198 577.645 53.278C577.645 51.5287 578.05 49.95 578.861 48.542C579.714 47.0913 581.08 45.9393 582.957 45.086C584.877 44.19 587.437 43.742 590.637 43.742H602.221V47.134H590.765C587.522 47.134 585.261 47.71 583.981 48.862C582.744 50.014 582.125 51.4433 582.125 53.15C582.125 55.07 582.872 56.606 584.365 57.758C585.858 58.91 587.949 59.486 590.637 59.486C593.197 59.486 595.394 58.91 597.229 57.758C599.106 56.5633 600.472 54.8567 601.325 52.638L602.349 55.774C601.496 57.9927 600.002 59.7633 597.869 61.086C595.778 62.4087 593.133 63.07 589.933 63.07ZM631.587 63.07C628.387 63.07 625.507 62.3447 622.947 60.894C620.43 59.4433 618.446 57.438 616.995 54.878C615.544 52.2753 614.819 49.2887 614.819 45.918C614.819 42.5047 615.544 39.518 616.995 36.958C618.446 34.398 620.43 32.414 622.947 31.006C625.507 29.5553 628.387 28.83 631.587 28.83C634.531 28.83 637.155 29.4913 639.459 30.814C641.806 32.1367 643.662 34.078 645.027 36.638C646.435 39.1553 647.139 42.2487 647.139 45.918C647.139 49.5447 646.456 52.638 645.091 55.198C643.726 57.758 641.87 59.7207 639.523 61.086C637.219 62.4087 634.574 63.07 631.587 63.07ZM631.907 59.038C634.296 59.038 636.43 58.5047 638.307 57.438C640.227 56.3287 641.72 54.7927 642.787 52.83C643.896 50.8247 644.451 48.5207 644.451 45.918C644.451 43.2727 643.896 40.9687 642.787 39.006C641.72 37.0433 640.227 35.5287 638.307 34.462C636.43 33.3527 634.296 32.798 631.907 32.798C629.56 32.798 627.448 33.3527 625.571 34.462C623.694 35.5287 622.2 37.0433 621.091 39.006C619.982 40.9687 619.427 43.2727 619.427 45.918C619.427 48.5207 619.982 50.8247 621.091 52.83C622.2 54.7927 623.694 56.3287 625.571 57.438C627.448 58.5047 629.56 59.038 631.907 59.038ZM644.579 62.75V52.638L645.027 45.854L644.387 39.07V15.262H648.931V62.75H644.579ZM661.842 75.486C660.263 75.486 658.749 75.23 657.298 74.718C655.89 74.206 654.674 73.438 653.65 72.414L655.762 69.022C656.615 69.8327 657.533 70.4513 658.514 70.878C659.538 71.3473 660.669 71.582 661.906 71.582C663.399 71.582 664.679 71.1553 665.746 70.302C666.855 69.4913 667.901 68.0407 668.882 65.95L671.058 61.022L671.57 60.318L685.394 29.15H689.874L673.042 66.782C672.103 68.958 671.058 70.686 669.906 71.966C668.797 73.246 667.581 74.142 666.258 74.654C664.935 75.2087 663.463 75.486 661.842 75.486ZM670.802 63.71L655.314 29.15H660.05L673.746 59.998L670.802 63.71ZM116.59 140.75L103.918 107.15H108.27L119.79 138.318H117.806L129.646 107.15H133.55L145.262 138.318H143.278L154.99 107.15H159.15L146.414 140.75H142.126L130.862 111.438H132.206L120.878 140.75H116.59ZM165.992 140.75V107.15H170.536V140.75H165.992ZM168.296 99.726C167.358 99.726 166.568 99.406 165.928 98.766C165.288 98.126 164.968 97.358 164.968 96.462C164.968 95.566 165.288 94.8193 165.928 94.222C166.568 93.582 167.358 93.262 168.296 93.262C169.235 93.262 170.024 93.5607 170.664 94.158C171.304 94.7553 171.624 95.502 171.624 96.398C171.624 97.3367 171.304 98.126 170.664 98.766C170.067 99.406 169.278 99.726 168.296 99.726ZM193.804 141.07C190.646 141.07 188.214 140.217 186.508 138.51C184.801 136.803 183.948 134.393 183.948 131.278V99.726H188.492V131.022C188.492 132.985 188.982 134.499 189.964 135.566C190.988 136.633 192.438 137.166 194.316 137.166C196.321 137.166 197.985 136.59 199.308 135.438L200.908 138.702C200.012 139.513 198.924 140.11 197.644 140.494C196.406 140.878 195.126 141.07 193.804 141.07ZM177.932 110.926V107.15H198.732V110.926H177.932ZM226.332 106.83C229.062 106.83 231.452 107.363 233.5 108.43C235.59 109.454 237.212 111.033 238.364 113.166C239.558 115.299 240.156 117.987 240.156 121.23V140.75H235.612V121.678C235.612 118.137 234.716 115.47 232.924 113.678C231.174 111.843 228.7 110.926 225.5 110.926C223.11 110.926 221.02 111.417 219.228 112.398C217.478 113.337 216.113 114.723 215.132 116.558C214.193 118.35 213.724 120.526 213.724 123.086V140.75H209.18V93.262H213.724V116.366L212.828 114.638C213.894 112.206 215.601 110.307 217.948 108.942C220.294 107.534 223.089 106.83 226.332 106.83ZM288.188 141.134C282.47 141.134 277.969 139.491 274.684 136.206C271.398 132.921 269.756 128.057 269.756 121.614V95.95H274.492V121.422C274.492 126.713 275.686 130.617 278.076 133.134C280.465 135.651 283.836 136.91 288.188 136.91C292.582 136.91 295.974 135.651 298.364 133.134C300.753 130.617 301.948 126.713 301.948 121.422V95.95H306.556V121.614C306.556 128.057 304.913 132.921 301.628 136.206C298.385 139.491 293.905 141.134 288.188 141.134ZM319.867 140.75V107.15H324.219V116.302L323.771 114.702C324.71 112.142 326.289 110.201 328.507 108.878C330.726 107.513 333.478 106.83 336.763 106.83V111.246C336.593 111.246 336.422 111.246 336.251 111.246C336.081 111.203 335.91 111.182 335.739 111.182C332.198 111.182 329.425 112.27 327.419 114.446C325.414 116.579 324.411 119.63 324.411 123.598V140.75H319.867ZM359.078 153.486C356.006 153.486 353.062 153.038 350.246 152.142C347.43 151.246 345.148 149.966 343.398 148.302L345.702 144.846C347.281 146.254 349.222 147.363 351.526 148.174C353.873 149.027 356.348 149.454 358.95 149.454C363.217 149.454 366.353 148.451 368.358 146.446C370.364 144.483 371.366 141.411 371.366 137.23V128.846L372.006 123.086L371.558 117.326V107.15H375.91V136.654C375.91 142.457 374.481 146.702 371.622 149.39C368.806 152.121 364.625 153.486 359.078 153.486ZM358.246 139.47C355.046 139.47 352.166 138.787 349.606 137.422C347.046 136.014 345.02 134.073 343.526 131.598C342.076 129.123 341.35 126.286 341.35 123.086C341.35 119.886 342.076 117.07 343.526 114.638C345.02 112.163 347.046 110.243 349.606 108.878C352.166 107.513 355.046 106.83 358.246 106.83C361.233 106.83 363.921 107.449 366.31 108.686C368.7 109.923 370.598 111.758 372.006 114.19C373.414 116.622 374.118 119.587 374.118 123.086C374.118 126.585 373.414 129.55 372.006 131.982C370.598 134.414 368.7 136.27 366.31 137.55C363.921 138.83 361.233 139.47 358.246 139.47ZM358.694 135.438C361.169 135.438 363.366 134.926 365.286 133.902C367.206 132.835 368.721 131.385 369.83 129.55C370.94 127.673 371.494 125.518 371.494 123.086C371.494 120.654 370.94 118.521 369.83 116.686C368.721 114.851 367.206 113.422 365.286 112.398C363.366 111.331 361.169 110.798 358.694 110.798C356.262 110.798 354.065 111.331 352.102 112.398C350.182 113.422 348.668 114.851 347.558 116.686C346.492 118.521 345.958 120.654 345.958 123.086C345.958 125.518 346.492 127.673 347.558 129.55C348.668 131.385 350.182 132.835 352.102 133.902C354.065 134.926 356.262 135.438 358.694 135.438ZM402.827 141.07C399.328 141.07 396.256 140.345 393.611 138.894C390.965 137.401 388.896 135.374 387.403 132.814C385.909 130.211 385.163 127.246 385.163 123.918C385.163 120.59 385.867 117.646 387.275 115.086C388.725 112.526 390.688 110.521 393.163 109.07C395.68 107.577 398.496 106.83 401.611 106.83C404.768 106.83 407.563 107.555 409.995 109.006C412.469 110.414 414.411 112.419 415.819 115.022C417.227 117.582 417.931 120.547 417.931 123.918C417.931 124.131 417.909 124.366 417.867 124.622C417.867 124.835 417.867 125.07 417.867 125.326H388.619V121.934H415.435L413.643 123.278C413.643 120.846 413.109 118.691 412.043 116.814C411.019 114.894 409.611 113.401 407.819 112.334C406.027 111.267 403.957 110.734 401.611 110.734C399.307 110.734 397.237 111.267 395.403 112.334C393.568 113.401 392.139 114.894 391.115 116.814C390.091 118.734 389.579 120.931 389.579 123.406V124.11C389.579 126.67 390.133 128.931 391.243 130.894C392.395 132.814 393.973 134.329 395.979 135.438C398.027 136.505 400.352 137.038 402.955 137.038C405.003 137.038 406.901 136.675 408.651 135.95C410.443 135.225 411.979 134.115 413.259 132.622L415.819 135.566C414.325 137.358 412.448 138.723 410.187 139.662C407.968 140.601 405.515 141.07 402.827 141.07ZM444.332 106.83C447.062 106.83 449.452 107.363 451.5 108.43C453.59 109.454 455.212 111.033 456.364 113.166C457.558 115.299 458.156 117.987 458.156 121.23V140.75H453.612V121.678C453.612 118.137 452.716 115.47 450.924 113.678C449.174 111.843 446.7 110.926 443.5 110.926C441.11 110.926 439.02 111.417 437.228 112.398C435.478 113.337 434.113 114.723 433.132 116.558C432.193 118.35 431.724 120.526 431.724 123.086V140.75H427.18V107.15H431.532V116.366L430.828 114.638C431.894 112.206 433.601 110.307 435.948 108.942C438.294 107.534 441.089 106.83 444.332 106.83ZM481.054 141.07C477.896 141.07 475.464 140.217 473.758 138.51C472.051 136.803 471.198 134.393 471.198 131.278V99.726H475.742V131.022C475.742 132.985 476.232 134.499 477.214 135.566C478.238 136.633 479.688 137.166 481.566 137.166C483.571 137.166 485.235 136.59 486.558 135.438L488.158 138.702C487.262 139.513 486.174 140.11 484.894 140.494C483.656 140.878 482.376 141.07 481.054 141.07ZM465.182 110.926V107.15H485.982V110.926H465.182ZM506.798 141.134C503.555 141.134 500.483 140.622 497.582 139.598C494.723 138.531 492.419 137.123 490.67 135.374L492.91 131.726C494.36 133.219 496.302 134.457 498.734 135.438C501.208 136.419 503.896 136.91 506.798 136.91C510.51 136.91 513.347 136.099 515.31 134.478C517.315 132.857 518.318 130.681 518.318 127.95C518.318 125.219 517.336 123.043 515.374 121.422C513.454 119.801 510.403 118.99 506.222 118.99H503.022V115.598L516.846 98.254L517.486 100.046H492.526V95.95H521.326V99.214L507.502 116.558L505.262 115.086H506.99C512.366 115.086 516.376 116.281 519.022 118.67C521.71 121.059 523.054 124.131 523.054 127.886C523.054 130.403 522.456 132.665 521.262 134.67C520.067 136.675 518.254 138.254 515.822 139.406C513.432 140.558 510.424 141.134 506.798 141.134ZM547.915 141.134C543.947 141.134 540.597 140.259 537.867 138.51C535.136 136.718 533.067 134.158 531.659 130.83C530.251 127.459 529.547 123.427 529.547 118.734C529.547 113.657 530.4 109.411 532.107 105.998C533.856 102.542 536.267 99.9393 539.339 98.19C542.411 96.4407 545.973 95.566 550.027 95.566C552.032 95.566 553.952 95.758 555.787 96.142C557.621 96.526 559.243 97.1447 560.651 97.998L558.795 101.71C557.643 100.942 556.32 100.409 554.827 100.11C553.333 99.7687 551.755 99.598 550.091 99.598C545.269 99.598 541.408 101.134 538.507 104.206C535.648 107.278 534.219 111.865 534.219 117.966C534.219 118.905 534.261 120.078 534.347 121.486C534.475 122.851 534.731 124.217 535.115 125.582L533.515 124.366C533.984 122.147 534.901 120.27 536.267 118.734C537.632 117.155 539.339 115.961 541.387 115.15C543.435 114.339 545.675 113.934 548.107 113.934C551.093 113.934 553.717 114.489 555.979 115.598C558.24 116.707 560.011 118.265 561.291 120.27C562.571 122.275 563.211 124.643 563.211 127.374C563.211 130.147 562.549 132.579 561.227 134.67C559.904 136.718 558.069 138.318 555.723 139.47C553.419 140.579 550.816 141.134 547.915 141.134ZM547.723 137.23C549.856 137.23 551.733 136.846 553.355 136.078C555.019 135.267 556.32 134.137 557.259 132.686C558.197 131.193 558.667 129.465 558.667 127.502C558.667 124.558 557.643 122.211 555.595 120.462C553.589 118.713 550.859 117.838 547.403 117.838C545.099 117.838 543.093 118.265 541.387 119.118C539.68 119.971 538.336 121.145 537.355 122.638C536.373 124.089 535.883 125.753 535.883 127.63C535.883 129.251 536.331 130.809 537.227 132.302C538.123 133.753 539.445 134.947 541.195 135.886C542.987 136.782 545.163 137.23 547.723 137.23ZM586.403 141.134C582.947 141.134 579.875 140.238 577.187 138.446C574.499 136.611 572.387 134.009 570.851 130.638C569.315 127.225 568.547 123.129 568.547 118.35C568.547 113.571 569.315 109.497 570.851 106.126C572.387 102.713 574.499 100.11 577.187 98.318C579.875 96.4833 582.947 95.566 586.403 95.566C589.859 95.566 592.931 96.4833 595.619 98.318C598.307 100.11 600.419 102.713 601.955 106.126C603.533 109.497 604.323 113.571 604.323 118.35C604.323 123.129 603.533 127.225 601.955 130.638C600.419 134.009 598.307 136.611 595.619 138.446C592.931 140.238 589.859 141.134 586.403 141.134ZM586.403 136.91C589.048 136.91 591.352 136.206 593.315 134.798C595.277 133.347 596.813 131.257 597.923 128.526C599.032 125.753 599.587 122.361 599.587 118.35C599.587 114.339 599.032 110.969 597.923 108.238C596.813 105.465 595.277 103.374 593.315 101.966C591.352 100.515 589.048 99.79 586.403 99.79C583.843 99.79 581.56 100.515 579.555 101.966C577.549 103.374 575.992 105.465 574.883 108.238C573.773 110.969 573.219 114.339 573.219 118.35C573.219 122.361 573.773 125.753 574.883 128.526C575.992 131.257 577.549 133.347 579.555 134.798C581.56 136.206 583.843 136.91 586.403 136.91Z" fill="white"/>
<rect x="384" y="197.25" width="282" height="92" rx="9.5" fill="black"/>
<g clip-path="url(#clip0_310_872)">
<path d="M422.784 241.924L398.715 266.928C398.986 267.878 399.471 268.754 400.135 269.489C400.799 270.224 401.624 270.799 402.547 271.17C403.469 271.541 404.465 271.697 405.457 271.628C406.45 271.558 407.414 271.265 408.275 270.77L435.357 255.475L422.784 241.924Z" fill="#EA4335"/>
<path d="M447.122 237.674L435.411 231.022L422.229 242.493L435.465 255.44L447.087 248.859C448.116 248.325 448.978 247.521 449.58 246.535C450.182 245.549 450.5 244.419 450.5 243.266C450.5 242.114 450.182 240.984 449.58 239.998C448.978 239.012 448.116 238.208 447.087 237.673H447.122L447.122 237.674Z" fill="#FBBC04"/>
<path d="M398.715 219.481C398.57 220.014 398.497 220.564 398.5 221.117V265.292C398.502 265.844 398.574 266.394 398.715 266.928L423.609 242.564L398.715 219.481Z" fill="#4285F4"/>
<path d="M422.964 243.204L435.411 231.022L408.365 215.657C407.347 215.066 406.19 214.753 405.01 214.75C402.084 214.744 399.511 216.67 398.715 219.463L422.964 243.204Z" fill="#34A853"/>
</g>
<path d="M469.137 221.75C469.012 221.367 468.847 221.025 468.643 220.722C468.442 220.415 468.201 220.153 467.921 219.938C467.645 219.722 467.33 219.557 466.978 219.443C466.626 219.33 466.239 219.273 465.819 219.273C465.129 219.273 464.503 219.451 463.938 219.807C463.374 220.163 462.925 220.688 462.592 221.381C462.258 222.074 462.092 222.924 462.092 223.932C462.092 224.939 462.26 225.79 462.597 226.483C462.934 227.176 463.391 227.701 463.967 228.057C464.542 228.413 465.19 228.591 465.91 228.591C466.576 228.591 467.164 228.449 467.671 228.165C468.183 227.877 468.58 227.472 468.864 226.949C469.152 226.422 469.296 225.803 469.296 225.091L469.728 225.182H466.228V223.932H470.66V225.182C470.66 226.14 470.455 226.973 470.046 227.682C469.641 228.39 469.08 228.939 468.364 229.33C467.652 229.716 466.834 229.909 465.91 229.909C464.879 229.909 463.974 229.667 463.194 229.182C462.417 228.697 461.811 228.008 461.376 227.114C460.944 226.22 460.728 225.159 460.728 223.932C460.728 223.011 460.851 222.184 461.097 221.449C461.347 220.71 461.7 220.081 462.154 219.562C462.609 219.044 463.147 218.646 463.768 218.369C464.389 218.093 465.073 217.955 465.819 217.955C466.433 217.955 467.004 218.047 467.535 218.233C468.069 218.415 468.544 218.674 468.961 219.011C469.381 219.345 469.732 219.744 470.012 220.21C470.292 220.672 470.486 221.186 470.592 221.75H469.137ZM473.073 229.75V218.114H480.096V219.364H474.482V223.295H479.732V224.545H474.482V228.5H480.187V229.75H473.073ZM481.999 219.364V218.114H490.727V219.364H487.067V229.75H485.658V219.364H481.999ZM498.81 218.114V229.75H497.401V218.114H498.81ZM500.999 219.364V218.114H509.727V219.364H506.067V229.75H504.658V219.364H500.999ZM526.219 223.932C526.219 225.159 525.998 226.22 525.555 227.114C525.112 228.008 524.504 228.697 523.731 229.182C522.958 229.667 522.076 229.909 521.083 229.909C520.091 229.909 519.208 229.667 518.435 229.182C517.663 228.697 517.055 228.008 516.612 227.114C516.168 226.22 515.947 225.159 515.947 223.932C515.947 222.705 516.168 221.644 516.612 220.75C517.055 219.856 517.663 219.167 518.435 218.682C519.208 218.197 520.091 217.955 521.083 217.955C522.076 217.955 522.958 218.197 523.731 218.682C524.504 219.167 525.112 219.856 525.555 220.75C525.998 221.644 526.219 222.705 526.219 223.932ZM524.856 223.932C524.856 222.924 524.687 222.074 524.35 221.381C524.017 220.688 523.564 220.163 522.992 219.807C522.424 219.451 521.788 219.273 521.083 219.273C520.379 219.273 519.74 219.451 519.168 219.807C518.6 220.163 518.147 220.688 517.81 221.381C517.477 222.074 517.31 222.924 517.31 223.932C517.31 224.939 517.477 225.79 517.81 226.483C518.147 227.176 518.6 227.701 519.168 228.057C519.74 228.413 520.379 228.591 521.083 228.591C521.788 228.591 522.424 228.413 522.992 228.057C523.564 227.701 524.017 227.176 524.35 226.483C524.687 225.79 524.856 224.939 524.856 223.932ZM537.816 218.114V229.75H536.452L530.112 220.614H529.998V229.75H528.589V218.114H529.952L536.316 227.273H536.43V218.114H537.816Z" fill="white"/>
<path d="M476.321 248.75C476.071 247.985 475.741 247.299 475.332 246.693C474.931 246.08 474.45 245.557 473.889 245.125C473.336 244.693 472.707 244.364 472.003 244.136C471.298 243.909 470.526 243.795 469.685 243.795C468.306 243.795 467.052 244.152 465.923 244.864C464.795 245.576 463.897 246.625 463.23 248.011C462.563 249.398 462.23 251.098 462.23 253.114C462.23 255.129 462.567 256.83 463.241 258.216C463.916 259.602 464.829 260.652 465.98 261.364C467.132 262.076 468.427 262.432 469.866 262.432C471.2 262.432 472.374 262.148 473.389 261.58C474.412 261.004 475.207 260.193 475.776 259.148C476.351 258.095 476.639 256.856 476.639 255.432L477.503 255.614H470.503V253.114H479.366V255.614C479.366 257.53 478.957 259.197 478.139 260.614C477.329 262.03 476.207 263.129 474.776 263.909C473.351 264.682 471.715 265.068 469.866 265.068C467.806 265.068 465.995 264.583 464.435 263.614C462.882 262.644 461.67 261.265 460.798 259.477C459.935 257.689 459.503 255.568 459.503 253.114C459.503 251.273 459.749 249.617 460.241 248.148C460.741 246.67 461.446 245.413 462.355 244.375C463.264 243.337 464.34 242.542 465.582 241.989C466.825 241.436 468.192 241.159 469.685 241.159C470.912 241.159 472.056 241.345 473.116 241.716C474.185 242.08 475.135 242.598 475.969 243.273C476.81 243.939 477.51 244.739 478.071 245.67C478.632 246.595 479.018 247.621 479.23 248.75H476.321ZM490.92 265.114C489.345 265.114 487.962 264.739 486.773 263.989C485.591 263.239 484.667 262.189 484 260.841C483.341 259.492 483.011 257.917 483.011 256.114C483.011 254.295 483.341 252.708 484 251.352C484.667 249.996 485.591 248.943 486.773 248.193C487.962 247.443 489.345 247.068 490.92 247.068C492.496 247.068 493.875 247.443 495.057 248.193C496.246 248.943 497.17 249.996 497.83 251.352C498.496 252.708 498.83 254.295 498.83 256.114C498.83 257.917 498.496 259.492 497.83 260.841C497.17 262.189 496.246 263.239 495.057 263.989C493.875 264.739 492.496 265.114 490.92 265.114ZM490.92 262.705C492.117 262.705 493.102 262.398 493.875 261.784C494.648 261.17 495.22 260.364 495.591 259.364C495.962 258.364 496.148 257.28 496.148 256.114C496.148 254.947 495.962 253.86 495.591 252.852C495.22 251.845 494.648 251.03 493.875 250.409C493.102 249.788 492.117 249.477 490.92 249.477C489.723 249.477 488.739 249.788 487.966 250.409C487.193 251.03 486.621 251.845 486.25 252.852C485.879 253.86 485.693 254.947 485.693 256.114C485.693 257.28 485.879 258.364 486.25 259.364C486.621 260.364 487.193 261.17 487.966 261.784C488.739 262.398 489.723 262.705 490.92 262.705ZM510.014 265.114C508.438 265.114 507.056 264.739 505.866 263.989C504.685 263.239 503.76 262.189 503.094 260.841C502.435 259.492 502.105 257.917 502.105 256.114C502.105 254.295 502.435 252.708 503.094 251.352C503.76 249.996 504.685 248.943 505.866 248.193C507.056 247.443 508.438 247.068 510.014 247.068C511.59 247.068 512.969 247.443 514.151 248.193C515.34 248.943 516.264 249.996 516.923 251.352C517.59 252.708 517.923 254.295 517.923 256.114C517.923 257.917 517.59 259.492 516.923 260.841C516.264 262.189 515.34 263.239 514.151 263.989C512.969 264.739 511.59 265.114 510.014 265.114ZM510.014 262.705C511.211 262.705 512.196 262.398 512.969 261.784C513.741 261.17 514.313 260.364 514.685 259.364C515.056 258.364 515.241 257.28 515.241 256.114C515.241 254.947 515.056 253.86 514.685 252.852C514.313 251.845 513.741 251.03 512.969 250.409C512.196 249.788 511.211 249.477 510.014 249.477C508.817 249.477 507.832 249.788 507.06 250.409C506.287 251.03 505.715 251.845 505.344 252.852C504.973 253.86 504.787 254.947 504.787 256.114C504.787 257.28 504.973 258.364 505.344 259.364C505.715 260.364 506.287 261.17 507.06 261.784C507.832 262.398 508.817 262.705 510.014 262.705ZM529.062 271.659C527.767 271.659 526.653 271.492 525.722 271.159C524.79 270.833 524.013 270.402 523.392 269.864C522.778 269.333 522.29 268.765 521.926 268.159L524.062 266.659C524.305 266.977 524.612 267.341 524.983 267.75C525.354 268.167 525.862 268.527 526.506 268.83C527.157 269.14 528.009 269.295 529.062 269.295C530.472 269.295 531.634 268.955 532.551 268.273C533.468 267.591 533.926 266.523 533.926 265.068V261.523H533.699C533.502 261.841 533.222 262.235 532.858 262.705C532.502 263.167 531.987 263.58 531.312 263.943C530.646 264.299 529.744 264.477 528.608 264.477C527.199 264.477 525.934 264.144 524.812 263.477C523.699 262.811 522.816 261.841 522.165 260.568C521.521 259.295 521.199 257.75 521.199 255.932C521.199 254.144 521.513 252.587 522.142 251.261C522.771 249.928 523.646 248.898 524.767 248.17C525.888 247.436 527.184 247.068 528.653 247.068C529.79 247.068 530.691 247.258 531.358 247.636C532.032 248.008 532.547 248.432 532.903 248.909C533.267 249.379 533.547 249.765 533.744 250.068H534.017V247.295H536.608V265.25C536.608 266.75 536.267 267.97 535.585 268.909C534.911 269.856 534.002 270.549 532.858 270.989C531.722 271.436 530.456 271.659 529.062 271.659ZM528.972 262.068C530.047 262.068 530.956 261.822 531.699 261.33C532.441 260.837 533.006 260.129 533.392 259.205C533.778 258.28 533.972 257.174 533.972 255.886C533.972 254.629 533.782 253.519 533.403 252.557C533.025 251.595 532.464 250.841 531.722 250.295C530.979 249.75 530.063 249.477 528.972 249.477C527.835 249.477 526.888 249.765 526.131 250.341C525.381 250.917 524.816 251.689 524.438 252.659C524.066 253.629 523.881 254.705 523.881 255.886C523.881 257.098 524.07 258.17 524.449 259.102C524.835 260.027 525.403 260.754 526.153 261.284C526.911 261.807 527.85 262.068 528.972 262.068ZM544.199 241.477V264.75H541.517V241.477H544.199ZM556.429 265.114C554.747 265.114 553.296 264.742 552.077 264C550.865 263.25 549.929 262.205 549.27 260.864C548.618 259.515 548.293 257.947 548.293 256.159C548.293 254.371 548.618 252.795 549.27 251.432C549.929 250.061 550.846 248.992 552.02 248.227C553.202 247.455 554.58 247.068 556.156 247.068C557.065 247.068 557.963 247.22 558.849 247.523C559.736 247.826 560.543 248.318 561.27 249C561.997 249.674 562.577 250.568 563.009 251.682C563.44 252.795 563.656 254.167 563.656 255.795V256.932H550.202V254.614H560.929C560.929 253.629 560.732 252.75 560.338 251.977C559.952 251.205 559.399 250.595 558.679 250.148C557.967 249.701 557.126 249.477 556.156 249.477C555.088 249.477 554.164 249.742 553.384 250.273C552.611 250.795 552.016 251.477 551.599 252.318C551.183 253.159 550.974 254.061 550.974 255.023V256.568C550.974 257.886 551.202 259.004 551.656 259.92C552.118 260.83 552.759 261.523 553.577 262C554.395 262.47 555.346 262.705 556.429 262.705C557.134 262.705 557.77 262.606 558.338 262.409C558.914 262.205 559.41 261.902 559.827 261.5C560.243 261.091 560.565 260.583 560.793 259.977L563.384 260.705C563.111 261.583 562.652 262.356 562.009 263.023C561.365 263.682 560.569 264.197 559.622 264.568C558.675 264.932 557.611 265.114 556.429 265.114ZM577.099 264.75V241.477H584.963C586.789 241.477 588.281 241.807 589.44 242.466C590.607 243.117 591.471 244 592.031 245.114C592.592 246.227 592.872 247.47 592.872 248.841C592.872 250.212 592.592 251.458 592.031 252.58C591.478 253.701 590.622 254.595 589.463 255.261C588.304 255.92 586.819 256.25 585.009 256.25H579.372V253.75H584.918C586.168 253.75 587.171 253.534 587.929 253.102C588.687 252.67 589.236 252.087 589.577 251.352C589.925 250.61 590.099 249.773 590.099 248.841C590.099 247.909 589.925 247.076 589.577 246.341C589.236 245.606 588.683 245.03 587.918 244.614C587.152 244.189 586.137 243.977 584.872 243.977H579.918V264.75H577.099ZM599.73 241.477V264.75H597.048V241.477H599.73ZM609.778 265.159C608.672 265.159 607.669 264.951 606.767 264.534C605.866 264.11 605.15 263.5 604.619 262.705C604.089 261.902 603.824 260.932 603.824 259.795C603.824 258.795 604.021 257.985 604.415 257.364C604.809 256.735 605.335 256.242 605.994 255.886C606.653 255.53 607.381 255.265 608.176 255.091C608.979 254.909 609.786 254.765 610.597 254.659C611.657 254.523 612.517 254.42 613.176 254.352C613.843 254.277 614.328 254.152 614.631 253.977C614.941 253.803 615.097 253.5 615.097 253.068V252.977C615.097 251.856 614.79 250.985 614.176 250.364C613.57 249.742 612.65 249.432 611.415 249.432C610.134 249.432 609.131 249.712 608.403 250.273C607.676 250.833 607.165 251.432 606.869 252.068L604.324 251.159C604.778 250.098 605.384 249.273 606.142 248.682C606.907 248.083 607.741 247.667 608.642 247.432C609.551 247.189 610.445 247.068 611.324 247.068C611.884 247.068 612.528 247.136 613.256 247.273C613.991 247.402 614.699 247.67 615.381 248.08C616.07 248.489 616.642 249.106 617.097 249.932C617.551 250.758 617.778 251.864 617.778 253.25V264.75H615.097V262.386H614.96C614.778 262.765 614.475 263.17 614.051 263.602C613.627 264.034 613.063 264.402 612.358 264.705C611.653 265.008 610.794 265.159 609.778 265.159ZM610.188 262.75C611.248 262.75 612.142 262.542 612.869 262.125C613.604 261.708 614.157 261.17 614.528 260.511C614.907 259.852 615.097 259.159 615.097 258.432V255.977C614.983 256.114 614.733 256.239 614.347 256.352C613.968 256.458 613.528 256.553 613.028 256.636C612.536 256.712 612.055 256.78 611.585 256.841C611.123 256.894 610.748 256.939 610.46 256.977C609.763 257.068 609.112 257.216 608.506 257.42C607.907 257.617 607.422 257.917 607.051 258.318C606.688 258.712 606.506 259.25 606.506 259.932C606.506 260.864 606.85 261.568 607.54 262.045C608.237 262.515 609.119 262.75 610.188 262.75ZM623.776 271.295C623.321 271.295 622.916 271.258 622.56 271.182C622.204 271.114 621.957 271.045 621.821 270.977L622.503 268.614C623.154 268.78 623.73 268.841 624.23 268.795C624.73 268.75 625.173 268.527 625.56 268.125C625.954 267.731 626.313 267.091 626.639 266.205L627.139 264.841L620.685 247.295H623.594L628.412 261.205H628.594L633.412 247.295H636.321L628.912 267.295C628.579 268.197 628.166 268.943 627.673 269.534C627.181 270.133 626.609 270.576 625.957 270.864C625.313 271.152 624.586 271.295 623.776 271.295Z" fill="white"/>
<rect x="384" y="197.25" width="282" height="92" rx="9.5" stroke="white"/>
<rect x="45" y="197.25" width="282" height="92" rx="9.5" fill="black"/>
<path d="M124.961 229.75H121.37V218.114H125.12C126.249 218.114 127.215 218.347 128.018 218.812C128.821 219.275 129.436 219.939 129.864 220.807C130.292 221.67 130.506 222.705 130.506 223.909C130.506 225.121 130.29 226.165 129.859 227.04C129.427 227.911 128.798 228.581 127.972 229.051C127.147 229.517 126.143 229.75 124.961 229.75ZM122.779 228.5H124.87C125.832 228.5 126.629 228.314 127.262 227.943C127.895 227.572 128.366 227.044 128.677 226.358C128.987 225.672 129.143 224.856 129.143 223.909C129.143 222.97 128.989 222.161 128.683 221.483C128.376 220.801 127.917 220.278 127.308 219.915C126.698 219.547 125.938 219.364 125.029 219.364H122.779V228.5ZM136.234 229.932C135.446 229.932 134.754 229.744 134.16 229.369C133.569 228.994 133.107 228.47 132.773 227.795C132.444 227.121 132.279 226.333 132.279 225.432C132.279 224.523 132.444 223.729 132.773 223.051C133.107 222.373 133.569 221.847 134.16 221.472C134.754 221.097 135.446 220.909 136.234 220.909C137.022 220.909 137.711 221.097 138.302 221.472C138.897 221.847 139.359 222.373 139.688 223.051C140.022 223.729 140.188 224.523 140.188 225.432C140.188 226.333 140.022 227.121 139.688 227.795C139.359 228.47 138.897 228.994 138.302 229.369C137.711 229.744 137.022 229.932 136.234 229.932ZM136.234 228.727C136.832 228.727 137.325 228.574 137.711 228.267C138.097 227.96 138.383 227.557 138.569 227.057C138.754 226.557 138.847 226.015 138.847 225.432C138.847 224.848 138.754 224.305 138.569 223.801C138.383 223.297 138.097 222.89 137.711 222.58C137.325 222.269 136.832 222.114 136.234 222.114C135.635 222.114 135.143 222.269 134.756 222.58C134.37 222.89 134.084 223.297 133.898 223.801C133.713 224.305 133.62 224.848 133.62 225.432C133.62 226.015 133.713 226.557 133.898 227.057C134.084 227.557 134.37 227.96 134.756 228.267C135.143 228.574 135.635 228.727 136.234 228.727ZM143.915 229.75L141.256 221.023H142.665L144.552 227.705H144.643L146.506 221.023H147.938L149.779 227.682H149.87L151.756 221.023H153.165L150.506 229.75H149.188L147.279 223.045H147.143L145.234 229.75H143.915ZM156.279 224.5V229.75H154.938V221.023H156.234V222.386H156.347C156.552 221.943 156.862 221.587 157.279 221.318C157.696 221.045 158.234 220.909 158.893 220.909C159.484 220.909 160.001 221.03 160.444 221.273C160.887 221.511 161.232 221.875 161.478 222.364C161.724 222.848 161.847 223.462 161.847 224.205V229.75H160.506V224.295C160.506 223.61 160.328 223.076 159.972 222.693C159.616 222.307 159.128 222.114 158.506 222.114C158.078 222.114 157.696 222.206 157.359 222.392C157.025 222.578 156.762 222.848 156.569 223.205C156.376 223.561 156.279 223.992 156.279 224.5ZM165.638 218.114V229.75H164.298V218.114H165.638ZM171.64 229.932C170.852 229.932 170.161 229.744 169.566 229.369C168.975 228.994 168.513 228.47 168.18 227.795C167.85 227.121 167.685 226.333 167.685 225.432C167.685 224.523 167.85 223.729 168.18 223.051C168.513 222.373 168.975 221.847 169.566 221.472C170.161 221.097 170.852 220.909 171.64 220.909C172.428 220.909 173.117 221.097 173.708 221.472C174.303 221.847 174.765 222.373 175.094 223.051C175.428 223.729 175.594 224.523 175.594 225.432C175.594 226.333 175.428 227.121 175.094 227.795C174.765 228.47 174.303 228.994 173.708 229.369C173.117 229.744 172.428 229.932 171.64 229.932ZM171.64 228.727C172.238 228.727 172.731 228.574 173.117 228.267C173.504 227.96 173.79 227.557 173.975 227.057C174.161 226.557 174.254 226.015 174.254 225.432C174.254 224.848 174.161 224.305 173.975 223.801C173.79 223.297 173.504 222.89 173.117 222.58C172.731 222.269 172.238 222.114 171.64 222.114C171.041 222.114 170.549 222.269 170.163 222.58C169.776 222.89 169.49 223.297 169.305 223.801C169.119 224.305 169.026 224.848 169.026 225.432C169.026 226.015 169.119 226.557 169.305 227.057C169.49 227.557 169.776 227.96 170.163 228.267C170.549 228.574 171.041 228.727 171.64 228.727ZM180.21 229.955C179.656 229.955 179.155 229.85 178.704 229.642C178.253 229.43 177.895 229.125 177.63 228.727C177.365 228.326 177.232 227.841 177.232 227.273C177.232 226.773 177.331 226.367 177.528 226.057C177.725 225.742 177.988 225.496 178.317 225.318C178.647 225.14 179.011 225.008 179.408 224.92C179.81 224.83 180.213 224.758 180.619 224.705C181.149 224.636 181.579 224.585 181.908 224.551C182.242 224.513 182.484 224.451 182.636 224.364C182.791 224.277 182.869 224.125 182.869 223.909V223.864C182.869 223.303 182.715 222.867 182.408 222.557C182.105 222.246 181.645 222.091 181.028 222.091C180.388 222.091 179.886 222.231 179.522 222.511C179.158 222.792 178.903 223.091 178.755 223.409L177.482 222.955C177.71 222.424 178.013 222.011 178.391 221.716C178.774 221.417 179.191 221.208 179.641 221.091C180.096 220.97 180.543 220.909 180.982 220.909C181.263 220.909 181.585 220.943 181.948 221.011C182.316 221.076 182.67 221.21 183.011 221.415C183.355 221.619 183.641 221.928 183.869 222.341C184.096 222.754 184.21 223.307 184.21 224V229.75H182.869V228.568H182.8C182.71 228.758 182.558 228.96 182.346 229.176C182.134 229.392 181.852 229.576 181.499 229.727C181.147 229.879 180.717 229.955 180.21 229.955ZM180.414 228.75C180.944 228.75 181.391 228.646 181.755 228.438C182.122 228.229 182.399 227.96 182.585 227.631C182.774 227.301 182.869 226.955 182.869 226.591V225.364C182.812 225.432 182.687 225.494 182.494 225.551C182.304 225.604 182.085 225.652 181.835 225.693C181.588 225.731 181.348 225.765 181.113 225.795C180.882 225.822 180.694 225.845 180.55 225.864C180.202 225.909 179.876 225.983 179.573 226.085C179.274 226.184 179.031 226.333 178.846 226.534C178.664 226.731 178.573 227 178.573 227.341C178.573 227.807 178.746 228.159 179.09 228.398C179.439 228.633 179.88 228.75 180.414 228.75ZM189.952 229.932C189.225 229.932 188.583 229.748 188.026 229.381C187.469 229.009 187.034 228.487 186.719 227.812C186.405 227.134 186.248 226.333 186.248 225.409C186.248 224.492 186.405 223.697 186.719 223.023C187.034 222.348 187.471 221.828 188.032 221.46C188.593 221.093 189.24 220.909 189.975 220.909C190.543 220.909 190.992 221.004 191.322 221.193C191.655 221.379 191.909 221.591 192.083 221.83C192.261 222.064 192.399 222.258 192.498 222.409H192.612V218.114H193.952V229.75H192.657V228.409H192.498C192.399 228.568 192.259 228.769 192.077 229.011C191.896 229.25 191.636 229.464 191.299 229.653C190.962 229.839 190.513 229.932 189.952 229.932ZM190.134 228.727C190.672 228.727 191.127 228.587 191.498 228.307C191.869 228.023 192.151 227.631 192.344 227.131C192.538 226.627 192.634 226.045 192.634 225.386C192.634 224.735 192.54 224.165 192.35 223.676C192.161 223.184 191.88 222.801 191.509 222.528C191.138 222.252 190.68 222.114 190.134 222.114C189.566 222.114 189.093 222.259 188.714 222.551C188.339 222.839 188.057 223.231 187.867 223.727C187.682 224.22 187.589 224.773 187.589 225.386C187.589 226.008 187.683 226.572 187.873 227.08C188.066 227.583 188.35 227.985 188.725 228.284C189.104 228.58 189.574 228.727 190.134 228.727ZM204.64 229.932C203.852 229.932 203.161 229.744 202.566 229.369C201.975 228.994 201.513 228.47 201.18 227.795C200.85 227.121 200.685 226.333 200.685 225.432C200.685 224.523 200.85 223.729 201.18 223.051C201.513 222.373 201.975 221.847 202.566 221.472C203.161 221.097 203.852 220.909 204.64 220.909C205.428 220.909 206.117 221.097 206.708 221.472C207.303 221.847 207.765 222.373 208.094 223.051C208.428 223.729 208.594 224.523 208.594 225.432C208.594 226.333 208.428 227.121 208.094 227.795C207.765 228.47 207.303 228.994 206.708 229.369C206.117 229.744 205.428 229.932 204.64 229.932ZM204.64 228.727C205.238 228.727 205.731 228.574 206.117 228.267C206.504 227.96 206.79 227.557 206.975 227.057C207.161 226.557 207.254 226.015 207.254 225.432C207.254 224.848 207.161 224.305 206.975 223.801C206.79 223.297 206.504 222.89 206.117 222.58C205.731 222.269 205.238 222.114 204.64 222.114C204.041 222.114 203.549 222.269 203.163 222.58C202.776 222.89 202.49 223.297 202.305 223.801C202.119 224.305 202.026 224.848 202.026 225.432C202.026 226.015 202.119 226.557 202.305 227.057C202.49 227.557 202.776 227.96 203.163 228.267C203.549 228.574 204.041 228.727 204.64 228.727ZM211.982 224.5V229.75H210.641V221.023H211.937V222.386H212.05C212.255 221.943 212.566 221.587 212.982 221.318C213.399 221.045 213.937 220.909 214.596 220.909C215.187 220.909 215.704 221.03 216.147 221.273C216.59 221.511 216.935 221.875 217.181 222.364C217.427 222.848 217.55 223.462 217.55 224.205V229.75H216.21V224.295C216.21 223.61 216.031 223.076 215.675 222.693C215.319 222.307 214.831 222.114 214.21 222.114C213.781 222.114 213.399 222.206 213.062 222.392C212.728 222.578 212.465 222.848 212.272 223.205C212.079 223.561 211.982 223.992 211.982 224.5ZM228.296 221.023V222.159H223.773V221.023H228.296ZM225.092 218.932H226.433V227.25C226.433 227.629 226.487 227.913 226.597 228.102C226.711 228.288 226.855 228.413 227.029 228.477C227.207 228.538 227.395 228.568 227.592 228.568C227.739 228.568 227.861 228.561 227.955 228.545C228.05 228.527 228.126 228.511 228.183 228.5L228.455 229.705C228.364 229.739 228.237 229.773 228.075 229.807C227.912 229.845 227.705 229.864 227.455 229.864C227.076 229.864 226.705 229.782 226.342 229.619C225.982 229.456 225.683 229.208 225.444 228.875C225.209 228.542 225.092 228.121 225.092 227.614V218.932ZM231.842 224.5V229.75H230.501V218.114H231.842V222.386H231.955C232.16 221.936 232.467 221.578 232.876 221.312C233.289 221.044 233.838 220.909 234.523 220.909C235.118 220.909 235.639 221.028 236.086 221.267C236.533 221.502 236.879 221.864 237.126 222.352C237.376 222.837 237.501 223.455 237.501 224.205V229.75H236.16V224.295C236.16 223.602 235.98 223.066 235.62 222.688C235.264 222.305 234.77 222.114 234.137 222.114C233.698 222.114 233.304 222.206 232.955 222.392C232.611 222.578 232.338 222.848 232.137 223.205C231.94 223.561 231.842 223.992 231.842 224.5ZM243.613 229.932C242.772 229.932 242.047 229.746 241.437 229.375C240.831 229 240.363 228.477 240.033 227.807C239.708 227.133 239.545 226.348 239.545 225.455C239.545 224.561 239.708 223.773 240.033 223.091C240.363 222.405 240.821 221.871 241.408 221.489C241.999 221.102 242.689 220.909 243.477 220.909C243.931 220.909 244.38 220.985 244.823 221.136C245.266 221.288 245.67 221.534 246.033 221.875C246.397 222.212 246.687 222.659 246.903 223.216C247.119 223.773 247.227 224.458 247.227 225.273V225.841H240.499V224.682H245.863C245.863 224.189 245.764 223.75 245.567 223.364C245.374 222.977 245.098 222.672 244.738 222.449C244.382 222.225 243.961 222.114 243.477 222.114C242.942 222.114 242.48 222.246 242.09 222.511C241.704 222.773 241.406 223.114 241.198 223.534C240.99 223.955 240.886 224.405 240.886 224.886V225.659C240.886 226.318 240.999 226.877 241.227 227.335C241.458 227.79 241.778 228.136 242.187 228.375C242.596 228.61 243.071 228.727 243.613 228.727C243.965 228.727 244.283 228.678 244.567 228.58C244.855 228.477 245.103 228.326 245.312 228.125C245.52 227.92 245.681 227.667 245.795 227.364L247.09 227.727C246.954 228.167 246.725 228.553 246.403 228.886C246.081 229.216 245.683 229.473 245.21 229.659C244.736 229.841 244.204 229.932 243.613 229.932Z" fill="white"/>
<path d="M122.491 263.75H119.537L128.082 240.477H130.991L139.537 263.75H136.582L129.628 244.159H129.446L122.491 263.75ZM123.582 254.659H135.491V257.159H123.582V254.659ZM142.798 270.295V246.295H145.389V249.068H145.707C145.904 248.765 146.177 248.379 146.526 247.909C146.882 247.432 147.389 247.008 148.048 246.636C148.715 246.258 149.616 246.068 150.753 246.068C152.223 246.068 153.518 246.436 154.639 247.17C155.76 247.905 156.635 248.947 157.264 250.295C157.893 251.644 158.207 253.235 158.207 255.068C158.207 256.917 157.893 258.519 157.264 259.875C156.635 261.223 155.764 262.269 154.651 263.011C153.537 263.746 152.253 264.114 150.798 264.114C149.677 264.114 148.779 263.928 148.105 263.557C147.431 263.178 146.912 262.75 146.548 262.273C146.185 261.788 145.904 261.386 145.707 261.068H145.48V270.295H142.798ZM145.435 255.023C145.435 256.341 145.628 257.504 146.014 258.511C146.401 259.511 146.965 260.295 147.707 260.864C148.45 261.424 149.359 261.705 150.435 261.705C151.556 261.705 152.491 261.409 153.241 260.818C153.999 260.22 154.567 259.417 154.946 258.409C155.332 257.394 155.526 256.265 155.526 255.023C155.526 253.795 155.336 252.689 154.957 251.705C154.586 250.712 154.022 249.928 153.264 249.352C152.514 248.769 151.571 248.477 150.435 248.477C149.344 248.477 148.427 248.754 147.685 249.307C146.942 249.852 146.382 250.617 146.003 251.602C145.624 252.58 145.435 253.72 145.435 255.023ZM162.298 270.295V246.295H164.889V249.068H165.207C165.404 248.765 165.677 248.379 166.026 247.909C166.382 247.432 166.889 247.008 167.548 246.636C168.215 246.258 169.116 246.068 170.253 246.068C171.723 246.068 173.018 246.436 174.139 247.17C175.26 247.905 176.135 248.947 176.764 250.295C177.393 251.644 177.707 253.235 177.707 255.068C177.707 256.917 177.393 258.519 176.764 259.875C176.135 261.223 175.264 262.269 174.151 263.011C173.037 263.746 171.753 264.114 170.298 264.114C169.177 264.114 168.279 263.928 167.605 263.557C166.931 263.178 166.412 262.75 166.048 262.273C165.685 261.788 165.404 261.386 165.207 261.068H164.98V270.295H162.298ZM164.935 255.023C164.935 256.341 165.128 257.504 165.514 258.511C165.901 259.511 166.465 260.295 167.207 260.864C167.95 261.424 168.859 261.705 169.935 261.705C171.056 261.705 171.991 261.409 172.741 260.818C173.499 260.22 174.067 259.417 174.446 258.409C174.832 257.394 175.026 256.265 175.026 255.023C175.026 253.795 174.836 252.689 174.457 251.705C174.086 250.712 173.522 249.928 172.764 249.352C172.014 248.769 171.071 248.477 169.935 248.477C168.844 248.477 167.927 248.754 167.185 249.307C166.442 249.852 165.882 250.617 165.503 251.602C165.124 252.58 164.935 253.72 164.935 255.023ZM203.889 246.295C203.753 245.144 203.2 244.25 202.23 243.614C201.26 242.977 200.071 242.659 198.662 242.659C197.632 242.659 196.73 242.826 195.957 243.159C195.192 243.492 194.594 243.951 194.162 244.534C193.738 245.117 193.526 245.78 193.526 246.523C193.526 247.144 193.673 247.678 193.969 248.125C194.272 248.564 194.658 248.932 195.128 249.227C195.598 249.515 196.09 249.754 196.605 249.943C197.12 250.125 197.594 250.273 198.026 250.386L200.389 251.023C200.995 251.182 201.67 251.402 202.412 251.682C203.162 251.962 203.878 252.345 204.56 252.83C205.249 253.307 205.817 253.92 206.264 254.67C206.711 255.42 206.935 256.341 206.935 257.432C206.935 258.689 206.605 259.826 205.946 260.841C205.295 261.856 204.34 262.663 203.082 263.261C201.832 263.86 200.313 264.159 198.526 264.159C196.859 264.159 195.416 263.89 194.196 263.352C192.984 262.814 192.029 262.064 191.332 261.102C190.643 260.14 190.253 259.023 190.162 257.75H193.071C193.147 258.629 193.442 259.356 193.957 259.932C194.48 260.5 195.139 260.924 195.935 261.205C196.738 261.477 197.601 261.614 198.526 261.614C199.601 261.614 200.567 261.439 201.423 261.091C202.279 260.735 202.957 260.242 203.457 259.614C203.957 258.977 204.207 258.235 204.207 257.386C204.207 256.614 203.991 255.985 203.56 255.5C203.128 255.015 202.56 254.621 201.855 254.318C201.151 254.015 200.389 253.75 199.571 253.523L196.707 252.705C194.889 252.182 193.45 251.436 192.389 250.466C191.329 249.496 190.798 248.227 190.798 246.659C190.798 245.356 191.151 244.22 191.855 243.25C192.567 242.273 193.522 241.515 194.719 240.977C195.923 240.432 197.268 240.159 198.753 240.159C200.253 240.159 201.586 240.428 202.753 240.966C203.92 241.496 204.844 242.223 205.526 243.148C206.215 244.072 206.579 245.121 206.616 246.295H203.889ZM218.795 246.295V248.568H209.75V246.295H218.795ZM212.386 242.114H215.068V258.75C215.068 259.508 215.178 260.076 215.398 260.455C215.625 260.826 215.913 261.076 216.261 261.205C216.617 261.326 216.992 261.386 217.386 261.386C217.682 261.386 217.924 261.371 218.114 261.341C218.303 261.303 218.455 261.273 218.568 261.25L219.114 263.659C218.932 263.727 218.678 263.795 218.352 263.864C218.027 263.939 217.614 263.977 217.114 263.977C216.356 263.977 215.614 263.814 214.886 263.489C214.167 263.163 213.568 262.667 213.091 262C212.621 261.333 212.386 260.492 212.386 259.477V242.114ZM229.733 264.114C228.157 264.114 226.775 263.739 225.585 262.989C224.403 262.239 223.479 261.189 222.812 259.841C222.153 258.492 221.824 256.917 221.824 255.114C221.824 253.295 222.153 251.708 222.812 250.352C223.479 248.996 224.403 247.943 225.585 247.193C226.775 246.443 228.157 246.068 229.733 246.068C231.309 246.068 232.688 246.443 233.869 247.193C235.059 247.943 235.983 248.996 236.642 250.352C237.309 251.708 237.642 253.295 237.642 255.114C237.642 256.917 237.309 258.492 236.642 259.841C235.983 261.189 235.059 262.239 233.869 262.989C232.688 263.739 231.309 264.114 229.733 264.114ZM229.733 261.705C230.93 261.705 231.915 261.398 232.688 260.784C233.46 260.17 234.032 259.364 234.403 258.364C234.775 257.364 234.96 256.28 234.96 255.114C234.96 253.947 234.775 252.86 234.403 251.852C234.032 250.845 233.46 250.03 232.688 249.409C231.915 248.788 230.93 248.477 229.733 248.477C228.536 248.477 227.551 248.788 226.778 249.409C226.006 250.03 225.434 250.845 225.062 251.852C224.691 252.86 224.506 253.947 224.506 255.114C224.506 256.28 224.691 257.364 225.062 258.364C225.434 259.364 226.006 260.17 226.778 260.784C227.551 261.398 228.536 261.705 229.733 261.705ZM241.736 263.75V246.295H244.327V248.932H244.509C244.827 248.068 245.402 247.367 246.236 246.83C247.069 246.292 248.009 246.023 249.054 246.023C249.251 246.023 249.497 246.027 249.793 246.034C250.088 246.042 250.312 246.053 250.463 246.068V248.795C250.372 248.773 250.164 248.739 249.838 248.693C249.52 248.64 249.183 248.614 248.827 248.614C247.978 248.614 247.221 248.792 246.554 249.148C245.895 249.496 245.372 249.981 244.986 250.602C244.607 251.216 244.418 251.917 244.418 252.705V263.75H241.736ZM260.429 264.114C258.747 264.114 257.296 263.742 256.077 263C254.865 262.25 253.929 261.205 253.27 259.864C252.618 258.515 252.293 256.947 252.293 255.159C252.293 253.371 252.618 251.795 253.27 250.432C253.929 249.061 254.846 247.992 256.02 247.227C257.202 246.455 258.58 246.068 260.156 246.068C261.065 246.068 261.963 246.22 262.849 246.523C263.736 246.826 264.543 247.318 265.27 248C265.997 248.674 266.577 249.568 267.009 250.682C267.44 251.795 267.656 253.167 267.656 254.795V255.932H254.202V253.614H264.929C264.929 252.629 264.732 251.75 264.338 250.977C263.952 250.205 263.399 249.595 262.679 249.148C261.967 248.701 261.126 248.477 260.156 248.477C259.088 248.477 258.164 248.742 257.384 249.273C256.611 249.795 256.016 250.477 255.599 251.318C255.183 252.159 254.974 253.061 254.974 254.023V255.568C254.974 256.886 255.202 258.004 255.656 258.92C256.118 259.83 256.759 260.523 257.577 261C258.395 261.47 259.346 261.705 260.429 261.705C261.134 261.705 261.77 261.606 262.338 261.409C262.914 261.205 263.41 260.902 263.827 260.5C264.243 260.091 264.565 259.583 264.793 258.977L267.384 259.705C267.111 260.583 266.652 261.356 266.009 262.023C265.365 262.682 264.569 263.197 263.622 263.568C262.675 263.932 261.611 264.114 260.429 264.114Z" fill="white"/>
<path d="M97.66 265.463C94.6231 268.471 91.3074 267.996 88.1156 266.571C84.7379 265.115 81.6391 265.051 78.0755 266.571C73.6132 268.534 71.2581 267.964 68.5931 265.463C53.4709 249.537 55.702 225.283 72.8695 224.397C77.0529 224.618 79.9657 226.74 82.4138 226.93C86.0704 226.17 89.5721 223.985 93.4766 224.27C98.1558 224.65 101.688 226.55 104.013 229.969C94.3443 235.89 96.6374 248.904 105.5 252.545C103.734 257.294 101.441 262.012 97.629 265.495L97.66 265.463ZM82.1039 224.207C81.6391 217.146 87.248 211.32 93.6935 210.75C94.5922 218.919 86.4423 224.998 82.1039 224.207Z" fill="white"/>
<rect x="45" y="197.25" width="282" height="92" rx="9.5" stroke="white"/>
<defs>
<clipPath id="clip0_310_872">
<rect width="52" height="57" fill="white" transform="translate(398.5 214.75)"/>
</clipPath>
</defs>
</svg>
