<svg width="75" height="75" viewBox="0 0 75 75" fill="none" xmlns="http://www.w3.org/2000/svg">
<path d="M37.5 7.03125C20.6733 7.03125 7.03125 20.6733 7.03125 37.5C7.03125 54.3267 20.6733 67.9688 37.5 67.9688C54.3267 67.9688 67.9688 54.3267 67.9688 37.5C67.9688 20.6733 54.3267 7.03125 37.5 7.03125ZM51.5625 42.1875H37.5C36.8784 42.1875 36.2823 41.9406 35.8427 41.501C35.4032 41.0615 35.1562 40.4654 35.1562 39.8438V18.75C35.1562 18.1284 35.4032 17.5323 35.8427 17.0927C36.2823 16.6532 36.8784 16.4062 37.5 16.4062C38.1216 16.4062 38.7177 16.6532 39.1573 17.0927C39.5968 17.5323 39.8438 18.1284 39.8438 18.75V37.5H51.5625C52.1841 37.5 52.7802 37.7469 53.2198 38.1865C53.6593 38.626 53.9062 39.2221 53.9062 39.8438C53.9062 40.4654 53.6593 41.0615 53.2198 41.501C52.7802 41.9406 52.1841 42.1875 51.5625 42.1875Z" fill="black"/>
</svg>
